<?xml version="1.0" standalone="no"?>
<!DOCTYPE svg PUBLIC "-//W3C//DTD SVG 20010904//EN"
 "http://www.w3.org/TR/2001/REC-SVG-20010904/DTD/svg10.dtd">
<svg version="1.0" xmlns="http://www.w3.org/2000/svg"
 width="1024.000000pt" height="1024.000000pt" viewBox="0 0 1024.000000 1024.000000"
 preserveAspectRatio="xMidYMid meet">

<g transform="translate(0.000000,1024.000000) scale(0.100000,-0.100000)"
fill="#000000" stroke="none">
<path d="M2095 10230 c-1157 -56 -1831 -589 -2029 -1608 -63 -324 -60 -126
-64 -3342 -3 -2957 -1 -3217 33 -3475 108 -821 491 -1358 1157 -1619 128 -50
333 -107 476 -131 299 -51 137 -48 3297 -52 3072 -4 3229 -3 3515 38 999 143
1576 720 1719 1719 41 286 42 443 38 3515 -4 3160 -1 2998 -52 3297 -82 483
-297 898 -600 1162 -353 307 -815 464 -1460 496 -220 11 -5798 11 -6030 0z
m3078 -2081 c43 -11 101 -59 122 -98 42 -82 26 -164 -46 -234 l-49 -47 0 -285
0 -285 -80 0 -80 0 0 285 0 285 -49 47 c-34 34 -53 61 -61 92 -26 98 29 202
126 236 48 17 68 18 117 4z m-373 -2146 l0 -1198 160 160 160 160 160 -160
160 -160 0 1198 0 1197 925 0 c1014 0 997 1 1144 -60 237 -98 419 -317 476
-573 14 -65 15 -275 13 -2117 l-3 -2045 -23 -70 c-77 -227 -216 -391 -417
-490 -177 -88 62 -80 -2440 -80 l-2220 0 -75 23 c-268 84 -460 274 -552 547
l-23 70 -3 2045 c-3 2235 -6 2103 53 2249 81 198 237 358 432 440 141 60 121
59 1141 60 l932 1 0 -1197z"/>
</g>
</svg>
